# xmcd
#
# Track frame offsets:
#	150
#	9142
#	35212
#	48589
#	73015
#	97472
#	110015
#	121357
#	141327
#	154320
#	161242
#	171667
#	193742
#	203710
#	210502
#	221440
#	233702
#	243502
#	261930
#	289965
#	306207
#	328225
#
# Disc length: 4618 seconds
#
# Revision: 1
# Processed by: cddbd v1.5.2PL0 Copyright (c) Steve Scherf et al.
# Submitted via: EasyCDDAExtractor 2010.6.0.0
#
DISCID=64120816
DTITLE=The Vienna Boys Choir - This is The Vienna Boys Choir CD2
DYEAR=1997
DGENRE=Chorus
TTITLE0=빈, 꿈의 도시
TTITLE1=봄의 소리 왈츠
TTITLE2=안넨 폴카
TTITLE3=아침의 신문 왈츠
TTITLE4=아름답고 푸른 도나우
TTITLE5=피치카토 폴카
TTITLE6=라데츠키 행진곡
TTITLE7=빈 숲 속의 이야기
TTITLE8=트리치-트리치 폴카
TTITLE9=봄을 기다림
TTITLE10=들장미
TTITLE11=아베 마리아
TTITLE12=자장가 슈베르트
TTITLE13=자장가 브람스
TTITLE14=잠의 요정
TTITLE15=고요한 밤 거룩한 밤
TTITLE16=송어
TTITLE17=세레나데 들어라 들어라 종달새들
TTITLE18=황제 왈츠
TTITLE19=천둥과 번개
TTITLE20=빈 기질
TTITLE21=남국의 장미
EXTD=
EXTT0=
EXTT1=
EXTT2=
EXTT3=
EXTT4=
EXTT5=
EXTT6=
EXTT7=
EXTT8=
EXTT9=
EXTT10=
EXTT11=
EXTT12=
EXTT13=
EXTT14=
EXTT15=
EXTT16=
EXTT17=
EXTT18=
EXTT19=
EXTT20=
EXTT21=
PLAYORDER=
